<mxfile host="app.diagrams.net" agent="Mozilla/5.0 (Macintosh; Intel Mac OS X 10_15_7) AppleWebKit/537.36 (KHTML, like Gecko) Chrome/135.0.0.0 Safari/537.36" version="26.2.14">
  <diagram name="ページ1" id="I1mmnMLsj8xbr34W4d1a">
    <mxGraphModel dx="3420" dy="1498" grid="1" gridSize="10" guides="1" tooltips="1" connect="1" arrows="1" fold="1" page="1" pageScale="1" pageWidth="827" pageHeight="1169" math="0" shadow="0">
      <root>
        <mxCell id="0" />
        <mxCell id="1" parent="0" />
        <mxCell id="1GBH_SfIVhljW1qB09_X-132" value="" style="group" parent="1" vertex="1" connectable="0">
          <mxGeometry x="280" y="40" width="1120" height="1450" as="geometry" />
        </mxCell>
        <mxCell id="1GBH_SfIVhljW1qB09_X-124" value="&lt;font style=&quot;font-size: 25px;&quot;&gt;Products&lt;/font&gt;" style="text;html=1;align=center;verticalAlign=middle;resizable=0;points=[];autosize=1;strokeColor=none;fillColor=none;" parent="1GBH_SfIVhljW1qB09_X-132" vertex="1">
          <mxGeometry x="20" y="344.0677966101695" width="120" height="40" as="geometry" />
        </mxCell>
        <mxCell id="1GBH_SfIVhljW1qB09_X-108" value="" style="rounded=0;whiteSpace=wrap;html=1;" parent="1GBH_SfIVhljW1qB09_X-132" vertex="1">
          <mxGeometry width="1000" height="1450" as="geometry" />
        </mxCell>
        <mxCell id="1GBH_SfIVhljW1qB09_X-114" value="&lt;span style=&quot;font-size: 30px;&quot;&gt;aws/envs/stg&lt;/span&gt;" style="text;html=1;align=center;verticalAlign=middle;resizable=0;points=[];autosize=1;strokeColor=none;fillColor=none;fontSize=40;" parent="1GBH_SfIVhljW1qB09_X-132" vertex="1">
          <mxGeometry width="200" height="60" as="geometry" />
        </mxCell>
        <mxCell id="1GBH_SfIVhljW1qB09_X-113" value="" style="rounded=0;whiteSpace=wrap;html=1;" parent="1GBH_SfIVhljW1qB09_X-132" vertex="1">
          <mxGeometry x="20" y="552.97" width="960" height="884.75" as="geometry" />
        </mxCell>
        <mxCell id="1GBH_SfIVhljW1qB09_X-141" value="" style="group" parent="1GBH_SfIVhljW1qB09_X-132" vertex="1" connectable="0">
          <mxGeometry x="40" y="73.72881355932203" width="586.5900000000001" height="454.66101694915255" as="geometry" />
        </mxCell>
        <mxCell id="1GBH_SfIVhljW1qB09_X-140" value="module.vpc.aws_route_table_association.private[0]&lt;br&gt;module.vpc.aws_route_table_association.private[1]&lt;br&gt;module.vpc.aws_route_table_association.public[0]&lt;br&gt;module.vpc.aws_route_table_association.public[1]&lt;br&gt;module.vpc.aws_subnet.private[0]&lt;br&gt;module.vpc.aws_subnet.private[1]&lt;br&gt;module.vpc.aws_subnet.public[0]&lt;br&gt;module.vpc.aws_subnet.public[1]&lt;br&gt;module.vpc.aws_vpc.this[0]&lt;br&gt;module.vpc_endpoints.data.aws_vpc_endpoint_service.this[&quot;s3&quot;]&lt;br&gt;module.vpc_endpoints.aws_vpc_endpoint.this[&quot;s3&quot;]&lt;div&gt;&lt;span style=&quot;text-align: center;&quot;&gt;module.vpc.aws_default_network_acl.this[0]&lt;/span&gt;&lt;br style=&quot;text-align: center;&quot;&gt;&lt;span style=&quot;text-align: center;&quot;&gt;module.vpc.aws_default_route_table.default[0]&lt;/span&gt;&lt;br style=&quot;text-align: center;&quot;&gt;&lt;span style=&quot;text-align: center;&quot;&gt;module.vpc.aws_default_security_group.this[0]&lt;/span&gt;&lt;br style=&quot;text-align: center;&quot;&gt;&lt;span style=&quot;text-align: center;&quot;&gt;module.vpc.aws_internet_gateway.this[0]&lt;/span&gt;&lt;br style=&quot;text-align: center;&quot;&gt;&lt;span style=&quot;text-align: center;&quot;&gt;module.vpc.aws_route.public_internet_gateway[0]&lt;/span&gt;&lt;br style=&quot;text-align: center;&quot;&gt;&lt;span style=&quot;text-align: center;&quot;&gt;module.vpc.aws_route_table.private[0]&lt;/span&gt;&lt;br style=&quot;text-align: center;&quot;&gt;&lt;span style=&quot;text-align: center;&quot;&gt;module.vpc.aws_route_table.private[1]&lt;/span&gt;&lt;br style=&quot;text-align: center;&quot;&gt;&lt;span style=&quot;text-align: center;&quot;&gt;module.vpc.aws_route_table.public[0]&lt;/span&gt;&lt;/div&gt;" style="rounded=0;whiteSpace=wrap;html=1;align=left;" parent="1GBH_SfIVhljW1qB09_X-141" vertex="1">
          <mxGeometry width="410" height="454.66101694915255" as="geometry" />
        </mxCell>
        <mxCell id="1GBH_SfIVhljW1qB09_X-139" value="" style="sketch=0;points=[[0,0,0],[0.25,0,0],[0.5,0,0],[0.75,0,0],[1,0,0],[0,1,0],[0.25,1,0],[0.5,1,0],[0.75,1,0],[1,1,0],[0,0.25,0],[0,0.5,0],[0,0.75,0],[1,0.25,0],[1,0.5,0],[1,0.75,0]];outlineConnect=0;fontColor=#232F3E;fillColor=#8C4FFF;strokeColor=#ffffff;dashed=0;verticalLabelPosition=bottom;verticalAlign=top;align=center;html=1;fontSize=12;fontStyle=0;aspect=fixed;shape=mxgraph.aws4.resourceIcon;resIcon=mxgraph.aws4.vpc;" parent="1GBH_SfIVhljW1qB09_X-141" vertex="1">
          <mxGeometry width="46.590909090909086" height="46.590909090909086" as="geometry" />
        </mxCell>
        <mxCell id="1GBH_SfIVhljW1qB09_X-138" value="network.tf" style="text;html=1;align=center;verticalAlign=middle;resizable=0;points=[];autosize=1;strokeColor=none;fillColor=none;" parent="1GBH_SfIVhljW1qB09_X-141" vertex="1">
          <mxGeometry x="46.590909090909086" width="80" height="30" as="geometry" />
        </mxCell>
        <mxCell id="1GBH_SfIVhljW1qB09_X-182" value="" style="group" parent="1GBH_SfIVhljW1qB09_X-132" vertex="1" connectable="0">
          <mxGeometry x="480" y="73.72881355932203" width="440" height="159.74576271186442" as="geometry" />
        </mxCell>
        <mxCell id="1GBH_SfIVhljW1qB09_X-181" value="module.ecs_cluster.module.cluster.aws_ecs_cluster.this[0]&lt;br&gt;module.ecs_cluster.module.cluster.aws_ecs_cluster_capacity_providers.this[0]&lt;div&gt;module.ecs_cluster.module.cluster.aws_cloudwatch_log_group.this[0]&lt;/div&gt;" style="rounded=0;whiteSpace=wrap;html=1;align=left;" parent="1GBH_SfIVhljW1qB09_X-182" vertex="1">
          <mxGeometry width="440" height="159.74576271186442" as="geometry" />
        </mxCell>
        <mxCell id="1GBH_SfIVhljW1qB09_X-179" value="" style="sketch=0;points=[[0,0,0],[0.25,0,0],[0.5,0,0],[0.75,0,0],[1,0,0],[0,1,0],[0.25,1,0],[0.5,1,0],[0.75,1,0],[1,1,0],[0,0.25,0],[0,0.5,0],[0,0.75,0],[1,0.25,0],[1,0.5,0],[1,0.75,0]];outlineConnect=0;fontColor=#232F3E;fillColor=#ED7100;strokeColor=#ffffff;dashed=0;verticalLabelPosition=bottom;verticalAlign=top;align=center;html=1;fontSize=12;fontStyle=0;aspect=fixed;shape=mxgraph.aws4.resourceIcon;resIcon=mxgraph.aws4.ecs;" parent="1GBH_SfIVhljW1qB09_X-182" vertex="1">
          <mxGeometry width="40" height="40" as="geometry" />
        </mxCell>
        <mxCell id="1GBH_SfIVhljW1qB09_X-180" value="ecs_cluster.tf" style="text;html=1;align=center;verticalAlign=middle;resizable=0;points=[];autosize=1;strokeColor=none;fillColor=none;" parent="1GBH_SfIVhljW1qB09_X-182" vertex="1">
          <mxGeometry x="43.75999999999999" width="90" height="30" as="geometry" />
        </mxCell>
        <mxCell id="1GBH_SfIVhljW1qB09_X-186" value="" style="group" parent="1GBH_SfIVhljW1qB09_X-132" vertex="1" connectable="0">
          <mxGeometry x="474.00000000000017" y="258.0508474576271" width="460" height="172.03389830508476" as="geometry" />
        </mxCell>
        <mxCell id="1GBH_SfIVhljW1qB09_X-185" value="aws_service_discovery_private_dns_namespace.stg_service_discovery_namespace" style="rounded=0;whiteSpace=wrap;html=1;align=left;" parent="1GBH_SfIVhljW1qB09_X-186" vertex="1">
          <mxGeometry width="460" height="172.03389830508476" as="geometry" />
        </mxCell>
        <mxCell id="1GBH_SfIVhljW1qB09_X-183" value="" style="sketch=0;points=[[0,0,0],[0.25,0,0],[0.5,0,0],[0.75,0,0],[1,0,0],[0,1,0],[0.25,1,0],[0.5,1,0],[0.75,1,0],[1,1,0],[0,0.25,0],[0,0.5,0],[0,0.75,0],[1,0.25,0],[1,0.5,0],[1,0.75,0]];outlineConnect=0;fontColor=#232F3E;fillColor=#8C4FFF;strokeColor=#ffffff;dashed=0;verticalLabelPosition=bottom;verticalAlign=top;align=center;html=1;fontSize=12;fontStyle=0;aspect=fixed;shape=mxgraph.aws4.resourceIcon;resIcon=mxgraph.aws4.cloud_map;" parent="1GBH_SfIVhljW1qB09_X-186" vertex="1">
          <mxGeometry width="40" height="40" as="geometry" />
        </mxCell>
        <mxCell id="1GBH_SfIVhljW1qB09_X-184" value="service_discovery.tf" style="text;html=1;align=center;verticalAlign=middle;resizable=0;points=[];autosize=1;strokeColor=none;fillColor=none;" parent="1GBH_SfIVhljW1qB09_X-186" vertex="1">
          <mxGeometry x="41.81818181818181" width="130" height="30" as="geometry" />
        </mxCell>
        <mxCell id="yOQ3HkAMDV6fzTH-cAhq-1" value="&lt;font style=&quot;font-size: 20px;&quot;&gt;Products&lt;/font&gt;" style="text;html=1;align=center;verticalAlign=middle;resizable=0;points=[];autosize=1;strokeColor=none;fillColor=none;" vertex="1" parent="1GBH_SfIVhljW1qB09_X-132">
          <mxGeometry x="70" y="570" width="100" height="40" as="geometry" />
        </mxCell>
        <mxCell id="1GBH_SfIVhljW1qB09_X-125" value="&lt;font style=&quot;font-size: 25px;&quot;&gt;Archaive&lt;/font&gt;" style="text;html=1;align=center;verticalAlign=middle;resizable=0;points=[];autosize=1;strokeColor=none;fillColor=none;" parent="1GBH_SfIVhljW1qB09_X-132" vertex="1">
          <mxGeometry x="54.717948717948715" y="630" width="120" height="40" as="geometry" />
        </mxCell>
        <mxCell id="yOQ3HkAMDV6fzTH-cAhq-4" value="" style="group" vertex="1" connectable="0" parent="1GBH_SfIVhljW1qB09_X-132">
          <mxGeometry x="50" y="630" width="920.9045454545454" height="650" as="geometry" />
        </mxCell>
        <mxCell id="1GBH_SfIVhljW1qB09_X-123" value="" style="rounded=0;whiteSpace=wrap;html=1;" parent="yOQ3HkAMDV6fzTH-cAhq-4" vertex="1">
          <mxGeometry width="920" height="650" as="geometry" />
        </mxCell>
        <mxCell id="1GBH_SfIVhljW1qB09_X-236" value="" style="group" parent="yOQ3HkAMDV6fzTH-cAhq-4" vertex="1" connectable="0">
          <mxGeometry x="13.759090909090908" y="49.999715555639796" width="460" height="234.99832888938403" as="geometry" />
        </mxCell>
        <mxCell id="yOQ3HkAMDV6fzTH-cAhq-2" value="" style="group" vertex="1" connectable="0" parent="1GBH_SfIVhljW1qB09_X-236">
          <mxGeometry width="460" height="234.99832888938403" as="geometry" />
        </mxCell>
        <mxCell id="1GBH_SfIVhljW1qB09_X-235" value="module.alb.data.aws_partition.current&lt;br&gt;module.alb.aws_lb.this[0]&lt;br&gt;module.alb.aws_lb_listener.this[&quot;http-80&quot;]&lt;br&gt;module.alb.aws_lb_listener.this[&quot;https-443&quot;]&lt;br&gt;module.alb.aws_lb_target_group.this[&quot;default-tg&quot;]&lt;br&gt;module.alb.aws_security_group.this[0]&lt;br&gt;module.alb.aws_vpc_security_group_egress_rule.this[&quot;frontend_egress&quot;]&lt;br&gt;module.alb.aws_vpc_security_group_ingress_rule.this[&quot;all_http&quot;]&lt;br&gt;&lt;div style=&quot;&quot;&gt;&lt;span style=&quot;background-color: transparent; color: light-dark(rgb(0, 0, 0), rgb(255, 255, 255));&quot;&gt;module.alb.aws_vpc_security_group_ingress_rule.this[&quot;all_https&quot;]&lt;/span&gt;&lt;/div&gt;" style="rounded=0;whiteSpace=wrap;html=1;align=left;" parent="yOQ3HkAMDV6fzTH-cAhq-2" vertex="1">
          <mxGeometry width="460" height="234.99832888938403" as="geometry" />
        </mxCell>
        <mxCell id="1GBH_SfIVhljW1qB09_X-233" value="" style="sketch=0;outlineConnect=0;fontColor=#232F3E;gradientColor=none;fillColor=#8C4FFF;strokeColor=none;dashed=0;verticalLabelPosition=bottom;verticalAlign=top;align=center;html=1;fontSize=12;fontStyle=0;aspect=fixed;pointerEvents=1;shape=mxgraph.aws4.application_load_balancer;" parent="yOQ3HkAMDV6fzTH-cAhq-2" vertex="1">
          <mxGeometry width="49.999644444549794" height="49.999644444549794" as="geometry" />
        </mxCell>
        <mxCell id="1GBH_SfIVhljW1qB09_X-234" value="alb.tf" style="text;html=1;align=center;verticalAlign=middle;resizable=0;points=[];autosize=1;strokeColor=none;fillColor=none;" parent="yOQ3HkAMDV6fzTH-cAhq-2" vertex="1">
          <mxGeometry x="52.27272727272727" width="50" height="30" as="geometry" />
        </mxCell>
        <mxCell id="1GBH_SfIVhljW1qB09_X-249" value="" style="group" parent="yOQ3HkAMDV6fzTH-cAhq-4" vertex="1" connectable="0">
          <mxGeometry x="439.99545454545455" y="390.001239898892" width="480.9090909090909" height="222.02876010110802" as="geometry" />
        </mxCell>
        <mxCell id="1GBH_SfIVhljW1qB09_X-248" value="data.aws_route53_zone.prod_hostzone_archaive&lt;br&gt;&lt;div style=&quot;&quot;&gt;&lt;span style=&quot;background-color: transparent; color: light-dark(rgb(0, 0, 0), rgb(255, 255, 255));&quot;&gt;aws_acm_certificate.stg_archaive_certificate&lt;/span&gt;&lt;/div&gt;aws_route53_record.stg_subdomain_archaive" style="rounded=0;whiteSpace=wrap;html=1;align=left;" parent="1GBH_SfIVhljW1qB09_X-249" vertex="1">
          <mxGeometry width="480.9090909090909" height="172.0326749532815" as="geometry" />
        </mxCell>
        <mxCell id="1GBH_SfIVhljW1qB09_X-245" value="" style="sketch=0;points=[[0,0,0],[0.25,0,0],[0.5,0,0],[0.75,0,0],[1,0,0],[0,1,0],[0.25,1,0],[0.5,1,0],[0.75,1,0],[1,1,0],[0,0.25,0],[0,0.5,0],[0,0.75,0],[1,0.25,0],[1,0.5,0],[1,0.75,0]];outlineConnect=0;fontColor=#232F3E;fillColor=#8C4FFF;strokeColor=#ffffff;dashed=0;verticalLabelPosition=bottom;verticalAlign=top;align=center;html=1;fontSize=12;fontStyle=0;aspect=fixed;shape=mxgraph.aws4.resourceIcon;resIcon=mxgraph.aws4.route_53;" parent="1GBH_SfIVhljW1qB09_X-249" vertex="1">
          <mxGeometry width="39.99971555563983" height="39.99971555563983" as="geometry" />
        </mxCell>
        <mxCell id="1GBH_SfIVhljW1qB09_X-246" value="" style="sketch=0;points=[[0,0,0],[0.25,0,0],[0.5,0,0],[0.75,0,0],[1,0,0],[0,1,0],[0.25,1,0],[0.5,1,0],[0.75,1,0],[1,1,0],[0,0.25,0],[0,0.5,0],[0,0.75,0],[1,0.25,0],[1,0.5,0],[1,0.75,0]];outlineConnect=0;fontColor=#232F3E;fillColor=#DD344C;strokeColor=#ffffff;dashed=0;verticalLabelPosition=bottom;verticalAlign=top;align=center;html=1;fontSize=12;fontStyle=0;aspect=fixed;shape=mxgraph.aws4.resourceIcon;resIcon=mxgraph.aws4.certificate_manager_3;" parent="1GBH_SfIVhljW1qB09_X-249" vertex="1">
          <mxGeometry x="43.7190082644628" width="39.99971555563983" height="39.99971555563983" as="geometry" />
        </mxCell>
        <mxCell id="1GBH_SfIVhljW1qB09_X-247" value="dns_and_certificate.tf" style="text;html=1;align=center;verticalAlign=middle;resizable=0;points=[];autosize=1;strokeColor=none;fillColor=none;" parent="1GBH_SfIVhljW1qB09_X-249" vertex="1">
          <mxGeometry x="87.4380165289256" width="140" height="30" as="geometry" />
        </mxCell>
        <mxCell id="yOQ3HkAMDV6fzTH-cAhq-3" value="" style="group" vertex="1" connectable="0" parent="yOQ3HkAMDV6fzTH-cAhq-4">
          <mxGeometry x="520" y="60" width="350" height="135.17" as="geometry" />
        </mxCell>
        <mxCell id="1GBH_SfIVhljW1qB09_X-194" value="aws_cloudwatch_log_group.stg_api_logs&lt;br&gt;&lt;div style=&quot;&quot;&gt;&lt;span style=&quot;background-color: transparent; color: light-dark(rgb(0, 0, 0), rgb(255, 255, 255));&quot;&gt;aws_cloudwatch_log_group.stg_client_logs&lt;/span&gt;&lt;/div&gt;" style="rounded=0;whiteSpace=wrap;html=1;align=left;" parent="yOQ3HkAMDV6fzTH-cAhq-3" vertex="1">
          <mxGeometry width="350" height="135.17" as="geometry" />
        </mxCell>
        <mxCell id="1GBH_SfIVhljW1qB09_X-192" value="cloudwatch.tf" style="text;html=1;align=center;verticalAlign=middle;resizable=0;points=[];autosize=1;strokeColor=none;fillColor=none;" parent="yOQ3HkAMDV6fzTH-cAhq-3" vertex="1">
          <mxGeometry x="31.818181818181813" width="90" height="30" as="geometry" />
        </mxCell>
        <mxCell id="1GBH_SfIVhljW1qB09_X-193" value="" style="sketch=0;points=[[0,0,0],[0.25,0,0],[0.5,0,0],[0.75,0,0],[1,0,0],[0,1,0],[0.25,1,0],[0.5,1,0],[0.75,1,0],[1,1,0],[0,0.25,0],[0,0.5,0],[0,0.75,0],[1,0.25,0],[1,0.5,0],[1,0.75,0]];points=[[0,0,0],[0.25,0,0],[0.5,0,0],[0.75,0,0],[1,0,0],[0,1,0],[0.25,1,0],[0.5,1,0],[0.75,1,0],[1,1,0],[0,0.25,0],[0,0.5,0],[0,0.75,0],[1,0.25,0],[1,0.5,0],[1,0.75,0]];outlineConnect=0;fontColor=#232F3E;fillColor=#E7157B;strokeColor=#ffffff;dashed=0;verticalLabelPosition=bottom;verticalAlign=top;align=center;html=1;fontSize=12;fontStyle=0;aspect=fixed;shape=mxgraph.aws4.resourceIcon;resIcon=mxgraph.aws4.cloudwatch_2;" parent="yOQ3HkAMDV6fzTH-cAhq-3" vertex="1">
          <mxGeometry width="29.1113241756547" height="29.1113241756547" as="geometry" />
        </mxCell>
        <mxCell id="1GBH_SfIVhljW1qB09_X-240" value="" style="group" parent="yOQ3HkAMDV6fzTH-cAhq-4" vertex="1" connectable="0">
          <mxGeometry x="497" y="210" width="393" height="172.03" as="geometry" />
        </mxCell>
        <mxCell id="1GBH_SfIVhljW1qB09_X-239" value="aws_db_instance.stg_db_mysql" style="rounded=0;whiteSpace=wrap;html=1;align=left;" parent="1GBH_SfIVhljW1qB09_X-240" vertex="1">
          <mxGeometry width="393" height="172.03" as="geometry" />
        </mxCell>
        <mxCell id="1GBH_SfIVhljW1qB09_X-238" value="" style="sketch=0;points=[[0,0,0],[0.25,0,0],[0.5,0,0],[0.75,0,0],[1,0,0],[0,1,0],[0.25,1,0],[0.5,1,0],[0.75,1,0],[1,1,0],[0,0.25,0],[0,0.5,0],[0,0.75,0],[1,0.25,0],[1,0.5,0],[1,0.75,0]];outlineConnect=0;fontColor=#232F3E;fillColor=#C925D1;strokeColor=#ffffff;dashed=0;verticalLabelPosition=bottom;verticalAlign=top;align=center;html=1;fontSize=12;fontStyle=0;aspect=fixed;shape=mxgraph.aws4.resourceIcon;resIcon=mxgraph.aws4.database;" parent="1GBH_SfIVhljW1qB09_X-240" vertex="1">
          <mxGeometry width="40.85982286082963" height="40.85982286082963" as="geometry" />
        </mxCell>
        <mxCell id="1GBH_SfIVhljW1qB09_X-237" value="db.tf" style="text;html=1;align=center;verticalAlign=middle;resizable=0;points=[];autosize=1;strokeColor=none;fillColor=none;" parent="1GBH_SfIVhljW1qB09_X-240" vertex="1">
          <mxGeometry x="44.659090909090914" width="50" height="30" as="geometry" />
        </mxCell>
        <mxCell id="1GBH_SfIVhljW1qB09_X-244" value="" style="group" parent="yOQ3HkAMDV6fzTH-cAhq-4" vertex="1" connectable="0">
          <mxGeometry x="4.720000000000027" y="290" width="450" height="242.04" as="geometry" />
        </mxCell>
        <mxCell id="1GBH_SfIVhljW1qB09_X-243" value="aws_s3_bucket.archaivezumenbucket&lt;br&gt;aws_s3_bucket.stg_archaive_taskdef_templates_bucket&lt;br&gt;&lt;div style=&quot;&quot;&gt;&lt;span style=&quot;background-color: transparent; color: light-dark(rgb(0, 0, 0), rgb(255, 255, 255));&quot;&gt;aws_s3_bucket_policy.stg_archaive_taskdef_templates_bucket_policy(IAM)&lt;/span&gt;&lt;/div&gt;" style="rounded=0;whiteSpace=wrap;html=1;align=left;" parent="1GBH_SfIVhljW1qB09_X-244" vertex="1">
          <mxGeometry width="422.44897959183675" height="172.03546441478883" as="geometry" />
        </mxCell>
        <mxCell id="1GBH_SfIVhljW1qB09_X-242" value="" style="sketch=0;points=[[0,0,0],[0.25,0,0],[0.5,0,0],[0.75,0,0],[1,0,0],[0,1,0],[0.25,1,0],[0.5,1,0],[0.75,1,0],[1,1,0],[0,0.25,0],[0,0.5,0],[0,0.75,0],[1,0.25,0],[1,0.5,0],[1,0.75,0]];outlineConnect=0;fontColor=#232F3E;fillColor=#7AA116;strokeColor=#ffffff;dashed=0;verticalLabelPosition=bottom;verticalAlign=top;align=center;html=1;fontSize=12;fontStyle=0;aspect=fixed;shape=mxgraph.aws4.resourceIcon;resIcon=mxgraph.aws4.s3;" parent="1GBH_SfIVhljW1qB09_X-244" vertex="1">
          <mxGeometry width="43.92160425918748" height="43.92160425918748" as="geometry" />
        </mxCell>
        <mxCell id="1GBH_SfIVhljW1qB09_X-241" value="s3.tf" style="text;html=1;align=center;verticalAlign=middle;resizable=0;points=[];autosize=1;strokeColor=none;fillColor=none;" parent="1GBH_SfIVhljW1qB09_X-244" vertex="1">
          <mxGeometry x="48.00556586270872" width="50" height="30" as="geometry" />
        </mxCell>
        <mxCell id="1GBH_SfIVhljW1qB09_X-67" value="" style="group" parent="1" vertex="1" connectable="0">
          <mxGeometry x="-750" y="30" width="970" height="830" as="geometry" />
        </mxCell>
        <mxCell id="1GBH_SfIVhljW1qB09_X-53" value="" style="rounded=0;whiteSpace=wrap;html=1;" parent="1GBH_SfIVhljW1qB09_X-67" vertex="1">
          <mxGeometry width="970" height="830" as="geometry" />
        </mxCell>
        <mxCell id="1GBH_SfIVhljW1qB09_X-12" value="ecs_cluster.tf&#xa;" style="group" parent="1GBH_SfIVhljW1qB09_X-67" vertex="1" connectable="0">
          <mxGeometry x="490" y="50" width="440" height="510" as="geometry" />
        </mxCell>
        <mxCell id="1GBH_SfIVhljW1qB09_X-16" value="" style="group" parent="1GBH_SfIVhljW1qB09_X-12" vertex="1" connectable="0">
          <mxGeometry width="440" height="130" as="geometry" />
        </mxCell>
        <mxCell id="1GBH_SfIVhljW1qB09_X-8" value="module.ecs_cluster.module.cluster.aws_ecs_cluster.this[0]&lt;br&gt;module.ecs_cluster.module.cluster.aws_ecs_cluster_capacity_providers.this[0]&lt;div&gt;module.ecs_cluster.module.cluster.aws_cloudwatch_log_group.this[0]&lt;/div&gt;" style="rounded=0;whiteSpace=wrap;html=1;align=left;" parent="1GBH_SfIVhljW1qB09_X-16" vertex="1">
          <mxGeometry width="440" height="130" as="geometry" />
        </mxCell>
        <mxCell id="1GBH_SfIVhljW1qB09_X-11" value="" style="sketch=0;points=[[0,0,0],[0.25,0,0],[0.5,0,0],[0.75,0,0],[1,0,0],[0,1,0],[0.25,1,0],[0.5,1,0],[0.75,1,0],[1,1,0],[0,0.25,0],[0,0.5,0],[0,0.75,0],[1,0.25,0],[1,0.5,0],[1,0.75,0]];outlineConnect=0;fontColor=#232F3E;fillColor=#ED7100;strokeColor=#ffffff;dashed=0;verticalLabelPosition=bottom;verticalAlign=top;align=center;html=1;fontSize=12;fontStyle=0;aspect=fixed;shape=mxgraph.aws4.resourceIcon;resIcon=mxgraph.aws4.ecs;" parent="1GBH_SfIVhljW1qB09_X-16" vertex="1">
          <mxGeometry width="40" height="40" as="geometry" />
        </mxCell>
        <mxCell id="1GBH_SfIVhljW1qB09_X-15" value="ecs_cluster.tf" style="text;html=1;align=center;verticalAlign=middle;resizable=0;points=[];autosize=1;strokeColor=none;fillColor=none;" parent="1GBH_SfIVhljW1qB09_X-16" vertex="1">
          <mxGeometry x="43.75999999999999" width="90" height="30" as="geometry" />
        </mxCell>
        <mxCell id="1GBH_SfIVhljW1qB09_X-37" value="" style="group" parent="1GBH_SfIVhljW1qB09_X-12" vertex="1" connectable="0">
          <mxGeometry y="140" width="440" height="370" as="geometry" />
        </mxCell>
        <mxCell id="1GBH_SfIVhljW1qB09_X-24" value="module.vpc.aws_route_table_association.private[0]&lt;br&gt;module.vpc.aws_route_table_association.private[1]&lt;br&gt;module.vpc.aws_route_table_association.public[0]&lt;br&gt;module.vpc.aws_route_table_association.public[1]&lt;br&gt;module.vpc.aws_subnet.private[0]&lt;br&gt;module.vpc.aws_subnet.private[1]&lt;br&gt;module.vpc.aws_subnet.public[0]&lt;br&gt;module.vpc.aws_subnet.public[1]&lt;br&gt;module.vpc.aws_vpc.this[0]&lt;br&gt;module.vpc_endpoints.data.aws_vpc_endpoint_service.this[&quot;s3&quot;]&lt;br&gt;module.vpc_endpoints.aws_vpc_endpoint.this[&quot;s3&quot;]&lt;div&gt;&lt;span style=&quot;text-align: center;&quot;&gt;module.vpc.aws_default_network_acl.this[0]&lt;/span&gt;&lt;br style=&quot;text-align: center;&quot;&gt;&lt;span style=&quot;text-align: center;&quot;&gt;module.vpc.aws_default_route_table.default[0]&lt;/span&gt;&lt;br style=&quot;text-align: center;&quot;&gt;&lt;span style=&quot;text-align: center;&quot;&gt;module.vpc.aws_default_security_group.this[0]&lt;/span&gt;&lt;br style=&quot;text-align: center;&quot;&gt;&lt;span style=&quot;text-align: center;&quot;&gt;module.vpc.aws_internet_gateway.this[0]&lt;/span&gt;&lt;br style=&quot;text-align: center;&quot;&gt;&lt;span style=&quot;text-align: center;&quot;&gt;module.vpc.aws_route.public_internet_gateway[0]&lt;/span&gt;&lt;br style=&quot;text-align: center;&quot;&gt;&lt;span style=&quot;text-align: center;&quot;&gt;module.vpc.aws_route_table.private[0]&lt;/span&gt;&lt;br style=&quot;text-align: center;&quot;&gt;&lt;span style=&quot;text-align: center;&quot;&gt;module.vpc.aws_route_table.private[1]&lt;/span&gt;&lt;br style=&quot;text-align: center;&quot;&gt;&lt;span style=&quot;text-align: center;&quot;&gt;module.vpc.aws_route_table.public[0]&lt;/span&gt;&lt;/div&gt;" style="rounded=0;whiteSpace=wrap;html=1;align=left;" parent="1GBH_SfIVhljW1qB09_X-37" vertex="1">
          <mxGeometry width="440" height="370" as="geometry" />
        </mxCell>
        <mxCell id="1GBH_SfIVhljW1qB09_X-35" value="" style="sketch=0;points=[[0,0,0],[0.25,0,0],[0.5,0,0],[0.75,0,0],[1,0,0],[0,1,0],[0.25,1,0],[0.5,1,0],[0.75,1,0],[1,1,0],[0,0.25,0],[0,0.5,0],[0,0.75,0],[1,0.25,0],[1,0.5,0],[1,0.75,0]];outlineConnect=0;fontColor=#232F3E;fillColor=#8C4FFF;strokeColor=#ffffff;dashed=0;verticalLabelPosition=bottom;verticalAlign=top;align=center;html=1;fontSize=12;fontStyle=0;aspect=fixed;shape=mxgraph.aws4.resourceIcon;resIcon=mxgraph.aws4.vpc;" parent="1GBH_SfIVhljW1qB09_X-37" vertex="1">
          <mxGeometry width="50" height="50" as="geometry" />
        </mxCell>
        <mxCell id="1GBH_SfIVhljW1qB09_X-36" value="network.tf" style="text;html=1;align=center;verticalAlign=middle;resizable=0;points=[];autosize=1;strokeColor=none;fillColor=none;" parent="1GBH_SfIVhljW1qB09_X-37" vertex="1">
          <mxGeometry x="50" width="80" height="30" as="geometry" />
        </mxCell>
        <mxCell id="1GBH_SfIVhljW1qB09_X-33" value="" style="group" parent="1GBH_SfIVhljW1qB09_X-67" vertex="1" connectable="0">
          <mxGeometry x="20" y="620" width="460" height="140" as="geometry" />
        </mxCell>
        <mxCell id="1GBH_SfIVhljW1qB09_X-25" value="aws_s3_bucket.archaivezumenbucket&lt;br&gt;aws_s3_bucket.stg_archaive_taskdef_templates_bucket&lt;br&gt;&lt;div style=&quot;&quot;&gt;&lt;span style=&quot;background-color: transparent; color: light-dark(rgb(0, 0, 0), rgb(255, 255, 255));&quot;&gt;aws_s3_bucket_policy.stg_archaive_taskdef_templates_bucket_policy(IAM)&lt;/span&gt;&lt;/div&gt;" style="rounded=0;whiteSpace=wrap;html=1;align=left;" parent="1GBH_SfIVhljW1qB09_X-33" vertex="1">
          <mxGeometry width="460" height="140" as="geometry" />
        </mxCell>
        <mxCell id="1GBH_SfIVhljW1qB09_X-30" value="" style="sketch=0;points=[[0,0,0],[0.25,0,0],[0.5,0,0],[0.75,0,0],[1,0,0],[0,1,0],[0.25,1,0],[0.5,1,0],[0.75,1,0],[1,1,0],[0,0.25,0],[0,0.5,0],[0,0.75,0],[1,0.25,0],[1,0.5,0],[1,0.75,0]];outlineConnect=0;fontColor=#232F3E;fillColor=#7AA116;strokeColor=#ffffff;dashed=0;verticalLabelPosition=bottom;verticalAlign=top;align=center;html=1;fontSize=12;fontStyle=0;aspect=fixed;shape=mxgraph.aws4.resourceIcon;resIcon=mxgraph.aws4.s3;" parent="1GBH_SfIVhljW1qB09_X-33" vertex="1">
          <mxGeometry width="50" height="50" as="geometry" />
        </mxCell>
        <mxCell id="1GBH_SfIVhljW1qB09_X-32" value="s3.tf" style="text;html=1;align=center;verticalAlign=middle;resizable=0;points=[];autosize=1;strokeColor=none;fillColor=none;" parent="1GBH_SfIVhljW1qB09_X-33" vertex="1">
          <mxGeometry x="52.27272727272727" width="50" height="30" as="geometry" />
        </mxCell>
        <mxCell id="1GBH_SfIVhljW1qB09_X-34" value="" style="group" parent="1GBH_SfIVhljW1qB09_X-67" vertex="1" connectable="0">
          <mxGeometry x="20" y="470" width="460" height="140" as="geometry" />
        </mxCell>
        <mxCell id="1GBH_SfIVhljW1qB09_X-26" value="aws_db_instance.stg_db_mysql" style="rounded=0;whiteSpace=wrap;html=1;align=left;" parent="1GBH_SfIVhljW1qB09_X-34" vertex="1">
          <mxGeometry width="460" height="140" as="geometry" />
        </mxCell>
        <mxCell id="1GBH_SfIVhljW1qB09_X-28" value="" style="sketch=0;points=[[0,0,0],[0.25,0,0],[0.5,0,0],[0.75,0,0],[1,0,0],[0,1,0],[0.25,1,0],[0.5,1,0],[0.75,1,0],[1,1,0],[0,0.25,0],[0,0.5,0],[0,0.75,0],[1,0.25,0],[1,0.5,0],[1,0.75,0]];outlineConnect=0;fontColor=#232F3E;fillColor=#C925D1;strokeColor=#ffffff;dashed=0;verticalLabelPosition=bottom;verticalAlign=top;align=center;html=1;fontSize=12;fontStyle=0;aspect=fixed;shape=mxgraph.aws4.resourceIcon;resIcon=mxgraph.aws4.database;" parent="1GBH_SfIVhljW1qB09_X-34" vertex="1">
          <mxGeometry width="50" height="50" as="geometry" />
        </mxCell>
        <mxCell id="1GBH_SfIVhljW1qB09_X-29" value="db.tf" style="text;html=1;align=center;verticalAlign=middle;resizable=0;points=[];autosize=1;strokeColor=none;fillColor=none;" parent="1GBH_SfIVhljW1qB09_X-34" vertex="1">
          <mxGeometry x="52.27272727272727" width="50" height="30" as="geometry" />
        </mxCell>
        <mxCell id="1GBH_SfIVhljW1qB09_X-44" value="" style="group" parent="1GBH_SfIVhljW1qB09_X-67" vertex="1" connectable="0">
          <mxGeometry x="20" y="200" width="460" height="110" as="geometry" />
        </mxCell>
        <mxCell id="1GBH_SfIVhljW1qB09_X-22" value="aws_cloudwatch_log_group.stg_api_logs&lt;br&gt;&lt;div style=&quot;&quot;&gt;&lt;span style=&quot;background-color: transparent; color: light-dark(rgb(0, 0, 0), rgb(255, 255, 255));&quot;&gt;aws_cloudwatch_log_group.stg_client_logs&lt;/span&gt;&lt;/div&gt;" style="rounded=0;whiteSpace=wrap;html=1;align=left;" parent="1GBH_SfIVhljW1qB09_X-44" vertex="1">
          <mxGeometry width="460" height="110" as="geometry" />
        </mxCell>
        <mxCell id="1GBH_SfIVhljW1qB09_X-42" value="cloudwatch.tf" style="text;html=1;align=center;verticalAlign=middle;resizable=0;points=[];autosize=1;strokeColor=none;fillColor=none;" parent="1GBH_SfIVhljW1qB09_X-44" vertex="1">
          <mxGeometry x="41.81818181818181" width="90" height="30" as="geometry" />
        </mxCell>
        <mxCell id="1GBH_SfIVhljW1qB09_X-43" value="" style="sketch=0;points=[[0,0,0],[0.25,0,0],[0.5,0,0],[0.75,0,0],[1,0,0],[0,1,0],[0.25,1,0],[0.5,1,0],[0.75,1,0],[1,1,0],[0,0.25,0],[0,0.5,0],[0,0.75,0],[1,0.25,0],[1,0.5,0],[1,0.75,0]];points=[[0,0,0],[0.25,0,0],[0.5,0,0],[0.75,0,0],[1,0,0],[0,1,0],[0.25,1,0],[0.5,1,0],[0.75,1,0],[1,1,0],[0,0.25,0],[0,0.5,0],[0,0.75,0],[1,0.25,0],[1,0.5,0],[1,0.75,0]];outlineConnect=0;fontColor=#232F3E;fillColor=#E7157B;strokeColor=#ffffff;dashed=0;verticalLabelPosition=bottom;verticalAlign=top;align=center;html=1;fontSize=12;fontStyle=0;aspect=fixed;shape=mxgraph.aws4.resourceIcon;resIcon=mxgraph.aws4.cloudwatch_2;" parent="1GBH_SfIVhljW1qB09_X-44" vertex="1">
          <mxGeometry width="40" height="40" as="geometry" />
        </mxCell>
        <mxCell id="1GBH_SfIVhljW1qB09_X-48" value="" style="group" parent="1GBH_SfIVhljW1qB09_X-67" vertex="1" connectable="0">
          <mxGeometry x="20" y="320" width="460" height="140" as="geometry" />
        </mxCell>
        <mxCell id="1GBH_SfIVhljW1qB09_X-21" value="data.aws_route53_zone.prod_hostzone_archaive&lt;br&gt;&lt;div style=&quot;&quot;&gt;&lt;span style=&quot;background-color: transparent; color: light-dark(rgb(0, 0, 0), rgb(255, 255, 255));&quot;&gt;aws_acm_certificate.stg_archaive_certificate&lt;/span&gt;&lt;/div&gt;aws_route53_record.stg_subdomain_archaive" style="rounded=0;whiteSpace=wrap;html=1;align=left;" parent="1GBH_SfIVhljW1qB09_X-48" vertex="1">
          <mxGeometry width="460" height="140" as="geometry" />
        </mxCell>
        <mxCell id="1GBH_SfIVhljW1qB09_X-45" value="" style="sketch=0;points=[[0,0,0],[0.25,0,0],[0.5,0,0],[0.75,0,0],[1,0,0],[0,1,0],[0.25,1,0],[0.5,1,0],[0.75,1,0],[1,1,0],[0,0.25,0],[0,0.5,0],[0,0.75,0],[1,0.25,0],[1,0.5,0],[1,0.75,0]];outlineConnect=0;fontColor=#232F3E;fillColor=#8C4FFF;strokeColor=#ffffff;dashed=0;verticalLabelPosition=bottom;verticalAlign=top;align=center;html=1;fontSize=12;fontStyle=0;aspect=fixed;shape=mxgraph.aws4.resourceIcon;resIcon=mxgraph.aws4.route_53;" parent="1GBH_SfIVhljW1qB09_X-48" vertex="1">
          <mxGeometry width="40" height="40" as="geometry" />
        </mxCell>
        <mxCell id="1GBH_SfIVhljW1qB09_X-46" value="" style="sketch=0;points=[[0,0,0],[0.25,0,0],[0.5,0,0],[0.75,0,0],[1,0,0],[0,1,0],[0.25,1,0],[0.5,1,0],[0.75,1,0],[1,1,0],[0,0.25,0],[0,0.5,0],[0,0.75,0],[1,0.25,0],[1,0.5,0],[1,0.75,0]];outlineConnect=0;fontColor=#232F3E;fillColor=#DD344C;strokeColor=#ffffff;dashed=0;verticalLabelPosition=bottom;verticalAlign=top;align=center;html=1;fontSize=12;fontStyle=0;aspect=fixed;shape=mxgraph.aws4.resourceIcon;resIcon=mxgraph.aws4.certificate_manager_3;" parent="1GBH_SfIVhljW1qB09_X-48" vertex="1">
          <mxGeometry x="41.81818181818181" width="40" height="40" as="geometry" />
        </mxCell>
        <mxCell id="1GBH_SfIVhljW1qB09_X-47" value="dns_and_certificate.tf" style="text;html=1;align=center;verticalAlign=middle;resizable=0;points=[];autosize=1;strokeColor=none;fillColor=none;" parent="1GBH_SfIVhljW1qB09_X-48" vertex="1">
          <mxGeometry x="83.63636363636363" width="140" height="30" as="geometry" />
        </mxCell>
        <mxCell id="1GBH_SfIVhljW1qB09_X-51" value="" style="group" parent="1GBH_SfIVhljW1qB09_X-67" vertex="1" connectable="0">
          <mxGeometry x="20" y="50" width="460" height="140" as="geometry" />
        </mxCell>
        <mxCell id="1GBH_SfIVhljW1qB09_X-20" value="aws_service_discovery_private_dns_namespace.stg_service_discovery_namespace" style="rounded=0;whiteSpace=wrap;html=1;align=left;" parent="1GBH_SfIVhljW1qB09_X-51" vertex="1">
          <mxGeometry width="460" height="140" as="geometry" />
        </mxCell>
        <mxCell id="1GBH_SfIVhljW1qB09_X-49" value="" style="sketch=0;points=[[0,0,0],[0.25,0,0],[0.5,0,0],[0.75,0,0],[1,0,0],[0,1,0],[0.25,1,0],[0.5,1,0],[0.75,1,0],[1,1,0],[0,0.25,0],[0,0.5,0],[0,0.75,0],[1,0.25,0],[1,0.5,0],[1,0.75,0]];outlineConnect=0;fontColor=#232F3E;fillColor=#8C4FFF;strokeColor=#ffffff;dashed=0;verticalLabelPosition=bottom;verticalAlign=top;align=center;html=1;fontSize=12;fontStyle=0;aspect=fixed;shape=mxgraph.aws4.resourceIcon;resIcon=mxgraph.aws4.cloud_map;" parent="1GBH_SfIVhljW1qB09_X-51" vertex="1">
          <mxGeometry width="40" height="40" as="geometry" />
        </mxCell>
        <mxCell id="1GBH_SfIVhljW1qB09_X-50" value="service_discovery.tf" style="text;html=1;align=center;verticalAlign=middle;resizable=0;points=[];autosize=1;strokeColor=none;fillColor=none;" parent="1GBH_SfIVhljW1qB09_X-51" vertex="1">
          <mxGeometry x="41.81818181818181" width="130" height="30" as="geometry" />
        </mxCell>
        <mxCell id="1GBH_SfIVhljW1qB09_X-52" value="" style="group" parent="1GBH_SfIVhljW1qB09_X-67" vertex="1" connectable="0">
          <mxGeometry x="490" y="570" width="440" height="235" as="geometry" />
        </mxCell>
        <mxCell id="1GBH_SfIVhljW1qB09_X-23" value="module.alb.data.aws_partition.current&lt;br&gt;module.alb.aws_lb.this[0]&lt;br&gt;module.alb.aws_lb_listener.this[&quot;http-80&quot;]&lt;br&gt;module.alb.aws_lb_listener.this[&quot;https-443&quot;]&lt;br&gt;module.alb.aws_lb_target_group.this[&quot;default-tg&quot;]&lt;br&gt;module.alb.aws_security_group.this[0]&lt;br&gt;module.alb.aws_vpc_security_group_egress_rule.this[&quot;frontend_egress&quot;]&lt;br&gt;module.alb.aws_vpc_security_group_ingress_rule.this[&quot;all_http&quot;]&lt;br&gt;&lt;div style=&quot;&quot;&gt;&lt;span style=&quot;background-color: transparent; color: light-dark(rgb(0, 0, 0), rgb(255, 255, 255));&quot;&gt;module.alb.aws_vpc_security_group_ingress_rule.this[&quot;all_https&quot;]&lt;/span&gt;&lt;/div&gt;" style="rounded=0;whiteSpace=wrap;html=1;align=left;" parent="1GBH_SfIVhljW1qB09_X-52" vertex="1">
          <mxGeometry width="440" height="235" as="geometry" />
        </mxCell>
        <mxCell id="1GBH_SfIVhljW1qB09_X-38" value="" style="sketch=0;outlineConnect=0;fontColor=#232F3E;gradientColor=none;fillColor=#8C4FFF;strokeColor=none;dashed=0;verticalLabelPosition=bottom;verticalAlign=top;align=center;html=1;fontSize=12;fontStyle=0;aspect=fixed;pointerEvents=1;shape=mxgraph.aws4.application_load_balancer;" parent="1GBH_SfIVhljW1qB09_X-52" vertex="1">
          <mxGeometry width="50" height="50" as="geometry" />
        </mxCell>
        <mxCell id="1GBH_SfIVhljW1qB09_X-39" value="alb.tf" style="text;html=1;align=center;verticalAlign=middle;resizable=0;points=[];autosize=1;strokeColor=none;fillColor=none;" parent="1GBH_SfIVhljW1qB09_X-52" vertex="1">
          <mxGeometry x="50" width="50" height="30" as="geometry" />
        </mxCell>
        <mxCell id="1GBH_SfIVhljW1qB09_X-54" value="stg-0208-seizou_zumen_pj" style="text;html=1;align=center;verticalAlign=middle;resizable=0;points=[];autosize=1;strokeColor=none;fillColor=none;" parent="1GBH_SfIVhljW1qB09_X-67" vertex="1">
          <mxGeometry x="10" y="10" width="170" height="30" as="geometry" />
        </mxCell>
        <mxCell id="1GBH_SfIVhljW1qB09_X-72" value="AWS Account" style="points=[[0,0],[0.25,0],[0.5,0],[0.75,0],[1,0],[1,0.25],[1,0.5],[1,0.75],[1,1],[0.75,1],[0.5,1],[0.25,1],[0,1],[0,0.75],[0,0.5],[0,0.25]];outlineConnect=0;gradientColor=none;html=1;whiteSpace=wrap;fontSize=12;fontStyle=0;container=1;pointerEvents=0;collapsible=0;recursiveResize=0;shape=mxgraph.aws4.group;grIcon=mxgraph.aws4.group_account;strokeColor=#CD2264;fillColor=none;verticalAlign=top;align=left;spacingLeft=30;fontColor=#CD2264;dashed=0;" parent="1" vertex="1">
          <mxGeometry x="1450" y="70" width="690" height="255" as="geometry" />
        </mxCell>
        <mxCell id="1GBH_SfIVhljW1qB09_X-69" value="Archaive 本番" style="points=[[0,0],[0.25,0],[0.5,0],[0.75,0],[1,0],[1,0.25],[1,0.5],[1,0.75],[1,1],[0.75,1],[0.5,1],[0.25,1],[0,1],[0,0.75],[0,0.5],[0,0.25]];outlineConnect=0;gradientColor=none;html=1;whiteSpace=wrap;fontSize=12;fontStyle=0;container=1;pointerEvents=0;collapsible=0;recursiveResize=0;shape=mxgraph.aws4.group;grIcon=mxgraph.aws4.group_vpc2;strokeColor=#8C4FFF;fillColor=none;verticalAlign=top;align=left;spacingLeft=30;fontColor=#AAB7B8;dashed=0;" parent="1GBH_SfIVhljW1qB09_X-72" vertex="1">
          <mxGeometry x="20" y="35" width="200" height="175" as="geometry" />
        </mxCell>
        <mxCell id="1GBH_SfIVhljW1qB09_X-71" value="受託 本番" style="points=[[0,0],[0.25,0],[0.5,0],[0.75,0],[1,0],[1,0.25],[1,0.5],[1,0.75],[1,1],[0.75,1],[0.5,1],[0.25,1],[0,1],[0,0.75],[0,0.5],[0,0.25]];outlineConnect=0;gradientColor=none;html=1;whiteSpace=wrap;fontSize=12;fontStyle=0;container=1;pointerEvents=0;collapsible=0;recursiveResize=0;shape=mxgraph.aws4.group;grIcon=mxgraph.aws4.group_vpc2;strokeColor=#8C4FFF;fillColor=none;verticalAlign=top;align=left;spacingLeft=30;fontColor=#AAB7B8;dashed=0;" parent="1GBH_SfIVhljW1qB09_X-72" vertex="1">
          <mxGeometry x="240" y="32.5" width="180" height="177.5" as="geometry" />
        </mxCell>
        <mxCell id="1GBH_SfIVhljW1qB09_X-70" value="Staging 全て" style="points=[[0,0],[0.25,0],[0.5,0],[0.75,0],[1,0],[1,0.25],[1,0.5],[1,0.75],[1,1],[0.75,1],[0.5,1],[0.25,1],[0,1],[0,0.75],[0,0.5],[0,0.25]];outlineConnect=0;gradientColor=none;html=1;whiteSpace=wrap;fontSize=12;fontStyle=0;container=1;pointerEvents=0;collapsible=0;recursiveResize=0;shape=mxgraph.aws4.group;grIcon=mxgraph.aws4.group_vpc2;strokeColor=#8C4FFF;fillColor=none;verticalAlign=top;align=left;spacingLeft=30;fontColor=#AAB7B8;dashed=0;" parent="1GBH_SfIVhljW1qB09_X-72" vertex="1">
          <mxGeometry x="440" y="32.5" width="200" height="177.5" as="geometry" />
        </mxCell>
        <mxCell id="1GBH_SfIVhljW1qB09_X-102" value="" style="group" parent="1" vertex="1" connectable="0">
          <mxGeometry x="1470" y="390" width="880" height="890" as="geometry" />
        </mxCell>
        <mxCell id="1GBH_SfIVhljW1qB09_X-74" value="AWS Cloud" style="points=[[0,0],[0.25,0],[0.5,0],[0.75,0],[1,0],[1,0.25],[1,0.5],[1,0.75],[1,1],[0.75,1],[0.5,1],[0.25,1],[0,1],[0,0.75],[0,0.5],[0,0.25]];outlineConnect=0;gradientColor=none;html=1;whiteSpace=wrap;fontSize=12;fontStyle=0;container=0;pointerEvents=0;collapsible=0;recursiveResize=0;shape=mxgraph.aws4.group;grIcon=mxgraph.aws4.group_aws_cloud_alt;strokeColor=#232F3E;fillColor=none;verticalAlign=top;align=left;spacingLeft=30;fontColor=#232F3E;dashed=0;" parent="1GBH_SfIVhljW1qB09_X-102" vertex="1">
          <mxGeometry width="880" height="890" as="geometry" />
        </mxCell>
        <mxCell id="1GBH_SfIVhljW1qB09_X-76" value="&lt;font color=&quot;#aab7b8&quot;&gt;Tokyo&lt;/font&gt;&lt;div&gt;&lt;font color=&quot;#aab7b8&quot;&gt;&lt;br&gt;&lt;/font&gt;&lt;/div&gt;" style="points=[[0,0],[0.25,0],[0.5,0],[0.75,0],[1,0],[1,0.25],[1,0.5],[1,0.75],[1,1],[0.75,1],[0.5,1],[0.25,1],[0,1],[0,0.75],[0,0.5],[0,0.25]];outlineConnect=0;gradientColor=none;html=1;whiteSpace=wrap;fontSize=12;fontStyle=0;container=1;pointerEvents=0;collapsible=0;recursiveResize=0;shape=mxgraph.aws4.group;grIcon=mxgraph.aws4.group_region;strokeColor=#00A4A6;fillColor=none;verticalAlign=top;align=left;spacingLeft=30;fontColor=#147EBA;dashed=1;" parent="1GBH_SfIVhljW1qB09_X-102" vertex="1">
          <mxGeometry x="35" y="25" width="810" height="840" as="geometry" />
        </mxCell>
        <mxCell id="1GBH_SfIVhljW1qB09_X-89" value="" style="sketch=0;points=[[0,0,0],[0.25,0,0],[0.5,0,0],[0.75,0,0],[1,0,0],[0,1,0],[0.25,1,0],[0.5,1,0],[0.75,1,0],[1,1,0],[0,0.25,0],[0,0.5,0],[0,0.75,0],[1,0.25,0],[1,0.5,0],[1,0.75,0]];outlineConnect=0;fontColor=#232F3E;fillColor=#7AA116;strokeColor=#ffffff;dashed=0;verticalLabelPosition=bottom;verticalAlign=top;align=center;html=1;fontSize=12;fontStyle=0;aspect=fixed;shape=mxgraph.aws4.resourceIcon;resIcon=mxgraph.aws4.s3;" parent="1GBH_SfIVhljW1qB09_X-76" vertex="1">
          <mxGeometry x="580" y="700" width="50" height="50" as="geometry" />
        </mxCell>
        <mxCell id="1GBH_SfIVhljW1qB09_X-101" value="" style="group" parent="1GBH_SfIVhljW1qB09_X-76" vertex="1" connectable="0">
          <mxGeometry x="50" y="20" width="731" height="620" as="geometry" />
        </mxCell>
        <mxCell id="1GBH_SfIVhljW1qB09_X-75" value="VPC" style="points=[[0,0],[0.25,0],[0.5,0],[0.75,0],[1,0],[1,0.25],[1,0.5],[1,0.75],[1,1],[0.75,1],[0.5,1],[0.25,1],[0,1],[0,0.75],[0,0.5],[0,0.25]];outlineConnect=0;gradientColor=none;html=1;whiteSpace=wrap;fontSize=12;fontStyle=0;container=0;pointerEvents=0;collapsible=0;recursiveResize=0;shape=mxgraph.aws4.group;grIcon=mxgraph.aws4.group_vpc2;strokeColor=#8C4FFF;fillColor=none;verticalAlign=top;align=left;spacingLeft=30;fontColor=#AAB7B8;dashed=0;movable=0;resizable=0;rotatable=0;deletable=0;editable=0;locked=1;connectable=0;" parent="1GBH_SfIVhljW1qB09_X-101" vertex="1">
          <mxGeometry y="20" width="590" height="600" as="geometry" />
        </mxCell>
        <mxCell id="1GBH_SfIVhljW1qB09_X-78" value="" style="sketch=0;points=[[0,0,0],[0.25,0,0],[0.5,0,0],[0.75,0,0],[1,0,0],[0,1,0],[0.25,1,0],[0.5,1,0],[0.75,1,0],[1,1,0],[0,0.25,0],[0,0.5,0],[0,0.75,0],[1,0.25,0],[1,0.5,0],[1,0.75,0]];outlineConnect=0;fontColor=#232F3E;fillColor=#ED7100;strokeColor=#ffffff;dashed=0;verticalLabelPosition=bottom;verticalAlign=top;align=center;html=1;fontSize=12;fontStyle=0;aspect=fixed;shape=mxgraph.aws4.resourceIcon;resIcon=mxgraph.aws4.ecr;" parent="1GBH_SfIVhljW1qB09_X-101" vertex="1">
          <mxGeometry x="656" y="375" width="50" height="50" as="geometry" />
        </mxCell>
        <mxCell id="1GBH_SfIVhljW1qB09_X-79" value="" style="sketch=0;points=[[0,0,0],[0.25,0,0],[0.5,0,0],[0.75,0,0],[1,0,0],[0,1,0],[0.25,1,0],[0.5,1,0],[0.75,1,0],[1,1,0],[0,0.25,0],[0,0.5,0],[0,0.75,0],[1,0.25,0],[1,0.5,0],[1,0.75,0]];outlineConnect=0;fontColor=#232F3E;fillColor=#8C4FFF;strokeColor=#ffffff;dashed=0;verticalLabelPosition=bottom;verticalAlign=top;align=center;html=1;fontSize=12;fontStyle=0;aspect=fixed;shape=mxgraph.aws4.resourceIcon;resIcon=mxgraph.aws4.cloudfront;" parent="1GBH_SfIVhljW1qB09_X-101" vertex="1">
          <mxGeometry x="656" width="50" height="50" as="geometry" />
        </mxCell>
        <mxCell id="1GBH_SfIVhljW1qB09_X-80" value="" style="sketch=0;points=[[0,0,0],[0.25,0,0],[0.5,0,0],[0.75,0,0],[1,0,0],[0,1,0],[0.25,1,0],[0.5,1,0],[0.75,1,0],[1,1,0],[0,0.25,0],[0,0.5,0],[0,0.75,0],[1,0.25,0],[1,0.5,0],[1,0.75,0]];outlineConnect=0;fontColor=#232F3E;fillColor=#DD344C;strokeColor=#ffffff;dashed=0;verticalLabelPosition=bottom;verticalAlign=top;align=center;html=1;fontSize=12;fontStyle=0;aspect=fixed;shape=mxgraph.aws4.resourceIcon;resIcon=mxgraph.aws4.certificate_manager_3;" parent="1GBH_SfIVhljW1qB09_X-101" vertex="1">
          <mxGeometry x="656" y="60" width="50" height="50" as="geometry" />
        </mxCell>
        <mxCell id="1GBH_SfIVhljW1qB09_X-81" value="" style="sketch=0;points=[[0,0,0],[0.25,0,0],[0.5,0,0],[0.75,0,0],[1,0,0],[0,1,0],[0.25,1,0],[0.5,1,0],[0.75,1,0],[1,1,0],[0,0.25,0],[0,0.5,0],[0,0.75,0],[1,0.25,0],[1,0.5,0],[1,0.75,0]];outlineConnect=0;fontColor=#232F3E;fillColor=#8C4FFF;strokeColor=#ffffff;dashed=0;verticalLabelPosition=bottom;verticalAlign=top;align=center;html=1;fontSize=12;fontStyle=0;aspect=fixed;shape=mxgraph.aws4.resourceIcon;resIcon=mxgraph.aws4.route_53;" parent="1GBH_SfIVhljW1qB09_X-101" vertex="1">
          <mxGeometry x="656" y="120" width="50" height="50" as="geometry" />
        </mxCell>
        <mxCell id="1GBH_SfIVhljW1qB09_X-82" value="" style="sketch=0;points=[[0,0,0],[0.25,0,0],[0.5,0,0],[0.75,0,0],[1,0,0],[0,1,0],[0.25,1,0],[0.5,1,0],[0.75,1,0],[1,1,0],[0,0.25,0],[0,0.5,0],[0,0.75,0],[1,0.25,0],[1,0.5,0],[1,0.75,0]];outlineConnect=0;fontColor=#232F3E;fillColor=#7AA116;strokeColor=#ffffff;dashed=0;verticalLabelPosition=bottom;verticalAlign=top;align=center;html=1;fontSize=12;fontStyle=0;aspect=fixed;shape=mxgraph.aws4.resourceIcon;resIcon=mxgraph.aws4.s3;" parent="1GBH_SfIVhljW1qB09_X-101" vertex="1">
          <mxGeometry x="656" y="430" width="50" height="50" as="geometry" />
        </mxCell>
        <mxCell id="1GBH_SfIVhljW1qB09_X-83" value="Generic group" style="fillColor=none;strokeColor=#5A6C86;dashed=1;verticalAlign=top;fontStyle=0;fontColor=#5A6C86;whiteSpace=wrap;html=1;" parent="1GBH_SfIVhljW1qB09_X-101" vertex="1">
          <mxGeometry x="631" y="350" width="100" height="140" as="geometry" />
        </mxCell>
        <mxCell id="1GBH_SfIVhljW1qB09_X-77" value="" style="sketch=0;outlineConnect=0;fontColor=#232F3E;gradientColor=none;fillColor=#8C4FFF;strokeColor=none;dashed=0;verticalLabelPosition=bottom;verticalAlign=top;align=center;html=1;fontSize=12;fontStyle=0;aspect=fixed;pointerEvents=1;shape=mxgraph.aws4.internet_gateway;movable=0;resizable=0;rotatable=0;deletable=0;editable=0;locked=1;connectable=0;" parent="1GBH_SfIVhljW1qB09_X-101" vertex="1">
          <mxGeometry x="270" width="50" height="50" as="geometry" />
        </mxCell>
        <mxCell id="1GBH_SfIVhljW1qB09_X-84" value="Availability Zone" style="fillColor=none;strokeColor=#147EBA;dashed=1;verticalAlign=top;fontStyle=0;fontColor=#147EBA;whiteSpace=wrap;html=1;movable=1;resizable=1;rotatable=1;deletable=1;editable=1;locked=0;connectable=1;" parent="1GBH_SfIVhljW1qB09_X-101" vertex="1">
          <mxGeometry x="50" y="60" width="500" height="490" as="geometry" />
        </mxCell>
        <mxCell id="1GBH_SfIVhljW1qB09_X-85" value="Public subnet" style="points=[[0,0],[0.25,0],[0.5,0],[0.75,0],[1,0],[1,0.25],[1,0.5],[1,0.75],[1,1],[0.75,1],[0.5,1],[0.25,1],[0,1],[0,0.75],[0,0.5],[0,0.25]];outlineConnect=0;gradientColor=none;html=1;whiteSpace=wrap;fontSize=12;fontStyle=0;container=1;pointerEvents=0;collapsible=0;recursiveResize=0;shape=mxgraph.aws4.group;grIcon=mxgraph.aws4.group_security_group;grStroke=0;strokeColor=#7AA116;fillColor=#F2F6E8;verticalAlign=top;align=left;spacingLeft=30;fontColor=#248814;dashed=0;movable=1;resizable=1;rotatable=1;deletable=1;editable=1;locked=0;connectable=1;" parent="1GBH_SfIVhljW1qB09_X-101" vertex="1">
          <mxGeometry x="70" y="110" width="210" height="180" as="geometry" />
        </mxCell>
        <mxCell id="1GBH_SfIVhljW1qB09_X-86" value="Public subnet" style="points=[[0,0],[0.25,0],[0.5,0],[0.75,0],[1,0],[1,0.25],[1,0.5],[1,0.75],[1,1],[0.75,1],[0.5,1],[0.25,1],[0,1],[0,0.75],[0,0.5],[0,0.25]];outlineConnect=0;gradientColor=none;html=1;whiteSpace=wrap;fontSize=12;fontStyle=0;container=1;pointerEvents=0;collapsible=0;recursiveResize=0;shape=mxgraph.aws4.group;grIcon=mxgraph.aws4.group_security_group;grStroke=0;strokeColor=#7AA116;fillColor=#F2F6E8;verticalAlign=top;align=left;spacingLeft=30;fontColor=#248814;dashed=0;movable=1;resizable=1;rotatable=1;deletable=1;editable=1;locked=0;connectable=1;" parent="1GBH_SfIVhljW1qB09_X-101" vertex="1">
          <mxGeometry x="307" y="110" width="210" height="180" as="geometry" />
        </mxCell>
        <mxCell id="1GBH_SfIVhljW1qB09_X-93" value="" style="fillColor=none;strokeColor=#5A6C86;dashed=1;verticalAlign=top;fontStyle=0;fontColor=#5A6C86;whiteSpace=wrap;html=1;" parent="1GBH_SfIVhljW1qB09_X-101" vertex="1">
          <mxGeometry x="70" y="160" width="440" height="340" as="geometry" />
        </mxCell>
        <mxCell id="1GBH_SfIVhljW1qB09_X-87" value="Private subnet" style="points=[[0,0],[0.25,0],[0.5,0],[0.75,0],[1,0],[1,0.25],[1,0.5],[1,0.75],[1,1],[0.75,1],[0.5,1],[0.25,1],[0,1],[0,0.75],[0,0.5],[0,0.25]];outlineConnect=0;gradientColor=none;html=1;whiteSpace=wrap;fontSize=12;fontStyle=0;container=1;pointerEvents=0;collapsible=0;recursiveResize=0;shape=mxgraph.aws4.group;grIcon=mxgraph.aws4.group_security_group;grStroke=0;strokeColor=#00A4A6;fillColor=#E6F6F7;verticalAlign=top;align=left;spacingLeft=30;fontColor=#147EBA;dashed=0;movable=1;resizable=1;rotatable=1;deletable=1;editable=1;locked=0;connectable=1;" parent="1GBH_SfIVhljW1qB09_X-101" vertex="1">
          <mxGeometry x="80" y="330" width="210" height="170" as="geometry" />
        </mxCell>
        <mxCell id="1GBH_SfIVhljW1qB09_X-88" value="Private subnet" style="points=[[0,0],[0.25,0],[0.5,0],[0.75,0],[1,0],[1,0.25],[1,0.5],[1,0.75],[1,1],[0.75,1],[0.5,1],[0.25,1],[0,1],[0,0.75],[0,0.5],[0,0.25]];outlineConnect=0;gradientColor=none;html=1;whiteSpace=wrap;fontSize=12;fontStyle=0;container=1;pointerEvents=0;collapsible=0;recursiveResize=0;shape=mxgraph.aws4.group;grIcon=mxgraph.aws4.group_security_group;grStroke=0;strokeColor=#00A4A6;fillColor=#E6F6F7;verticalAlign=top;align=left;spacingLeft=30;fontColor=#147EBA;dashed=0;movable=1;resizable=1;rotatable=1;deletable=1;editable=1;locked=0;connectable=1;" parent="1GBH_SfIVhljW1qB09_X-101" vertex="1">
          <mxGeometry x="310" y="330" width="210" height="170" as="geometry" />
        </mxCell>
        <mxCell id="1GBH_SfIVhljW1qB09_X-90" value="" style="sketch=0;points=[[0,0,0],[0.25,0,0],[0.5,0,0],[0.75,0,0],[1,0,0],[0,1,0],[0.25,1,0],[0.5,1,0],[0.75,1,0],[1,1,0],[0,0.25,0],[0,0.5,0],[0,0.75,0],[1,0.25,0],[1,0.5,0],[1,0.75,0]];outlineConnect=0;fontColor=#232F3E;fillColor=#ED7100;strokeColor=#ffffff;dashed=0;verticalLabelPosition=bottom;verticalAlign=top;align=center;html=1;fontSize=12;fontStyle=0;aspect=fixed;shape=mxgraph.aws4.resourceIcon;resIcon=mxgraph.aws4.ecs;" parent="1GBH_SfIVhljW1qB09_X-101" vertex="1">
          <mxGeometry x="70" y="160" width="30" height="30" as="geometry" />
        </mxCell>
        <mxCell id="1GBH_SfIVhljW1qB09_X-91" value="frontend" style="sketch=0;outlineConnect=0;fontColor=#232F3E;gradientColor=none;fillColor=#ED7100;strokeColor=none;dashed=0;verticalLabelPosition=bottom;verticalAlign=top;align=center;html=1;fontSize=12;fontStyle=0;aspect=fixed;pointerEvents=1;shape=mxgraph.aws4.container_1;" parent="1GBH_SfIVhljW1qB09_X-101" vertex="1">
          <mxGeometry x="210" y="180" width="48" height="31" as="geometry" />
        </mxCell>
        <mxCell id="1GBH_SfIVhljW1qB09_X-92" value="backend" style="sketch=0;outlineConnect=0;fontColor=#232F3E;gradientColor=none;fillColor=#ED7100;strokeColor=none;dashed=0;verticalLabelPosition=bottom;verticalAlign=top;align=center;html=1;fontSize=12;fontStyle=0;aspect=fixed;pointerEvents=1;shape=mxgraph.aws4.container_1;" parent="1GBH_SfIVhljW1qB09_X-101" vertex="1">
          <mxGeometry x="210" y="230" width="48" height="31" as="geometry" />
        </mxCell>
        <mxCell id="1GBH_SfIVhljW1qB09_X-94" value="MySQL" style="sketch=0;points=[[0,0,0],[0.25,0,0],[0.5,0,0],[0.75,0,0],[1,0,0],[0,1,0],[0.25,1,0],[0.5,1,0],[0.75,1,0],[1,1,0],[0,0.25,0],[0,0.5,0],[0,0.75,0],[1,0.25,0],[1,0.5,0],[1,0.75,0]];outlineConnect=0;fontColor=#232F3E;fillColor=#C925D1;strokeColor=#ffffff;dashed=0;verticalLabelPosition=bottom;verticalAlign=top;align=center;html=1;fontSize=12;fontStyle=0;aspect=fixed;shape=mxgraph.aws4.resourceIcon;resIcon=mxgraph.aws4.database;" parent="1GBH_SfIVhljW1qB09_X-101" vertex="1">
          <mxGeometry x="210" y="380" width="50" height="50" as="geometry" />
        </mxCell>
        <mxCell id="1GBH_SfIVhljW1qB09_X-95" value="" style="sketch=0;outlineConnect=0;fontColor=#232F3E;gradientColor=none;fillColor=#8C4FFF;strokeColor=none;dashed=0;verticalLabelPosition=bottom;verticalAlign=top;align=center;html=1;fontSize=12;fontStyle=0;aspect=fixed;pointerEvents=1;shape=mxgraph.aws4.endpoints;" parent="1GBH_SfIVhljW1qB09_X-101" vertex="1">
          <mxGeometry x="570" y="396" width="44" height="44" as="geometry" />
        </mxCell>
        <mxCell id="1GBH_SfIVhljW1qB09_X-97" value="" style="sketch=0;outlineConnect=0;fontColor=#232F3E;gradientColor=none;fillColor=#8C4FFF;strokeColor=none;dashed=0;verticalLabelPosition=bottom;verticalAlign=top;align=center;html=1;fontSize=12;fontStyle=0;aspect=fixed;pointerEvents=1;shape=mxgraph.aws4.application_load_balancer;" parent="1GBH_SfIVhljW1qB09_X-101" vertex="1">
          <mxGeometry x="267" y="90" width="40" height="40" as="geometry" />
        </mxCell>
        <mxCell id="1GBH_SfIVhljW1qB09_X-98" value="" style="sketch=0;points=[[0,0,0],[0.25,0,0],[0.5,0,0],[0.75,0,0],[1,0,0],[0,1,0],[0.25,1,0],[0.5,1,0],[0.75,1,0],[1,1,0],[0,0.25,0],[0,0.5,0],[0,0.75,0],[1,0.25,0],[1,0.5,0],[1,0.75,0]];outlineConnect=0;fontColor=#232F3E;fillColor=#ED7100;strokeColor=#ffffff;dashed=0;verticalLabelPosition=bottom;verticalAlign=top;align=center;html=1;fontSize=12;fontStyle=0;aspect=fixed;shape=mxgraph.aws4.resourceIcon;resIcon=mxgraph.aws4.auto_scaling3;" parent="1GBH_SfIVhljW1qB09_X-101" vertex="1">
          <mxGeometry x="165" y="200" width="40" height="40" as="geometry" />
        </mxCell>
        <mxCell id="1GBH_SfIVhljW1qB09_X-100" value="" style="fillColor=none;strokeColor=#5A6C86;dashed=1;verticalAlign=top;fontStyle=0;fontColor=#5A6C86;whiteSpace=wrap;html=1;" parent="1GBH_SfIVhljW1qB09_X-101" vertex="1">
          <mxGeometry x="130" y="170" width="140" height="120" as="geometry" />
        </mxCell>
        <mxCell id="1GBH_SfIVhljW1qB09_X-103" value="ecs cluster" style="text;html=1;align=center;verticalAlign=middle;resizable=0;points=[];autosize=1;strokeColor=none;fillColor=none;" parent="1GBH_SfIVhljW1qB09_X-101" vertex="1">
          <mxGeometry x="267" y="160" width="80" height="30" as="geometry" />
        </mxCell>
        <mxCell id="1GBH_SfIVhljW1qB09_X-104" value="" style="sketch=0;points=[[0,0,0],[0.25,0,0],[0.5,0,0],[0.75,0,0],[1,0,0],[0,1,0],[0.25,1,0],[0.5,1,0],[0.75,1,0],[1,1,0],[0,0.25,0],[0,0.5,0],[0,0.75,0],[1,0.25,0],[1,0.5,0],[1,0.75,0]];outlineConnect=0;fontColor=#232F3E;fillColor=#8C4FFF;strokeColor=#ffffff;dashed=0;verticalLabelPosition=bottom;verticalAlign=top;align=center;html=1;fontSize=12;fontStyle=0;aspect=fixed;shape=mxgraph.aws4.resourceIcon;resIcon=mxgraph.aws4.cloud_map;" parent="1GBH_SfIVhljW1qB09_X-102" vertex="1">
          <mxGeometry x="90" y="710" width="50" height="50" as="geometry" />
        </mxCell>
        <mxCell id="1GBH_SfIVhljW1qB09_X-105" value="" style="sketch=0;points=[[0,0,0],[0.25,0,0],[0.5,0,0],[0.75,0,0],[1,0,0],[0,1,0],[0.25,1,0],[0.5,1,0],[0.75,1,0],[1,1,0],[0,0.25,0],[0,0.5,0],[0,0.75,0],[1,0.25,0],[1,0.5,0],[1,0.75,0]];points=[[0,0,0],[0.25,0,0],[0.5,0,0],[0.75,0,0],[1,0,0],[0,1,0],[0.25,1,0],[0.5,1,0],[0.75,1,0],[1,1,0],[0,0.25,0],[0,0.5,0],[0,0.75,0],[1,0.25,0],[1,0.5,0],[1,0.75,0]];outlineConnect=0;fontColor=#232F3E;fillColor=#E7157B;strokeColor=#ffffff;dashed=0;verticalLabelPosition=bottom;verticalAlign=top;align=center;html=1;fontSize=12;fontStyle=0;aspect=fixed;shape=mxgraph.aws4.resourceIcon;resIcon=mxgraph.aws4.cloudwatch_2;" parent="1GBH_SfIVhljW1qB09_X-102" vertex="1">
          <mxGeometry x="160" y="707" width="50" height="50" as="geometry" />
        </mxCell>
        <mxCell id="1GBH_SfIVhljW1qB09_X-106" value="" style="group" parent="1" vertex="1" connectable="0">
          <mxGeometry x="-760" y="870" width="980" height="330" as="geometry" />
        </mxCell>
        <mxCell id="1GBH_SfIVhljW1qB09_X-55" value="" style="rounded=0;whiteSpace=wrap;html=1;" parent="1GBH_SfIVhljW1qB09_X-106" vertex="1">
          <mxGeometry width="980" height="330" as="geometry" />
        </mxCell>
        <mxCell id="1GBH_SfIVhljW1qB09_X-57" value="terraform管理外" style="text;html=1;align=center;verticalAlign=middle;resizable=0;points=[];autosize=1;strokeColor=none;fillColor=none;" parent="1GBH_SfIVhljW1qB09_X-106" vertex="1">
          <mxGeometry x="10" width="110" height="30" as="geometry" />
        </mxCell>
        <mxCell id="1GBH_SfIVhljW1qB09_X-107" value="" style="group" parent="1" vertex="1" connectable="0">
          <mxGeometry x="-750" y="1220" width="980" height="440" as="geometry" />
        </mxCell>
        <mxCell id="1GBH_SfIVhljW1qB09_X-59" value="" style="rounded=0;whiteSpace=wrap;html=1;" parent="1GBH_SfIVhljW1qB09_X-107" vertex="1">
          <mxGeometry width="980" height="440" as="geometry" />
        </mxCell>
        <mxCell id="1GBH_SfIVhljW1qB09_X-60" value="本番環境" style="text;html=1;align=center;verticalAlign=middle;resizable=0;points=[];autosize=1;strokeColor=none;fillColor=none;" parent="1GBH_SfIVhljW1qB09_X-107" vertex="1">
          <mxGeometry width="70" height="30" as="geometry" />
        </mxCell>
      </root>
    </mxGraphModel>
  </diagram>
</mxfile>
